<svg xmlns="http://www.w3.org/2000/svg" viewBox="0 0 145.95 117.96"><defs><style>.cls-1,.cls-2{fill:none;stroke:#000;stroke-miterlimit:10;}.cls-1{stroke-width:4px;}.cls-2{stroke-width:2px;}</style></defs><g id="Layer_2" data-name="Layer 2"><g id="Layer_1-2" data-name="Layer 1"><circle class="cls-1" cx="27.52" cy="93.96" r="9"/><circle class="cls-1" cx="27.52" cy="93.96" r="22"/><circle class="cls-1" cx="128.23" cy="93.68" r="6.28"/><circle class="cls-1" cx="128.23" cy="93.68" r="15.72"/><path class="cls-2" d="M53.09,81.35A28.3,28.3,0,0,0,28.75,63.46C13.82,62.53,4.89,74.38,4.31,75.18"/><path class="cls-2" d="M56.8,105.4h44.6s-3-8,0-13.19,6.79-13.06,9.34-15.68l2.55-2.63H73.06S81,87,76.34,90.53s-14-.88-15.71,3.06C60.63,93.59,54.41,105.18,56.8,105.4Z"/><path class="cls-2" d="M141,67.41H60.55S28,51.9,19,51.9H10V12.4H1.31s-.7-5.78,0-9.14S75,.62,75,3.26V9.9h-8.5C64,9.9,85.37,38.4,85.37,38.4s54.22-8.5,57.43,0S141,67.41,141,67.41Z"/><path class="cls-2" d="M33.52,12.4s-3.5,25.5,0,26,26.64,6.5,29.57,10.5,10.77-5,9.35-10.5-14.5-26-14.5-26S33,9.9,33.52,12.4Z"/></g></g></svg>