<svg xmlns="http://www.w3.org/2000/svg" viewBox="0 0 197 170.68"><defs><style>.cls-1,.cls-2,.cls-3{fill:none;stroke:#000;stroke-miterlimit:10;}.cls-2{stroke-width:1.5px;}.cls-3{stroke-width:0.5px;}</style></defs><g id="Layer_2" data-name="Layer 2"><g id="Layer_1-2" data-name="Layer 1"><line class="cls-1" x1="57.75" y1="170.68" x2="57.75" y2="29.18"/><line class="cls-1" x1="79.75" y1="170.18" x2="79.75" y2="29.18"/><line class="cls-1" x1="46.19" y1="137.18" x2="92.75" y2="137.18"/><line class="cls-1" x1="46.19" y1="149.18" x2="92.75" y2="149.18"/><line class="cls-1" x1="46.19" y1="160.18" x2="92.75" y2="160.18"/><line class="cls-1" x1="79.75" y1="149.18" x2="57.75" y2="170.18"/><line class="cls-1" x1="57.75" y1="149.18" x2="79.75" y2="170.18"/><rect class="cls-2" x="0.75" y="42.18" width="195.5" height="13"/><rect x="13.25" y="31.68" width="7" height="39"/><rect x="3.25" y="31.68" width="7" height="39"/><line class="cls-1" x1="79.75" y1="29.18" x2="68.75" y2="0.18"/><line class="cls-1" x1="57.75" y1="29.18" x2="68.75" y2="0.18"/><line class="cls-3" x1="0.75" y1="42.18" x2="68.25" y2="0.68"/><line class="cls-3" x1="5.75" y1="42.18" x2="68.75" y2="1.18"/><line class="cls-3" x1="145.75" y1="42.18" x2="68.75" y2="1.18"/><line class="cls-3" x1="141.75" y1="42.18" x2="68.75" y2="1.18"/><line class="cls-1" x1="92.75" y1="136.68" x2="92.75" y2="170.68"/><line class="cls-1" x1="45.75" y1="136.68" x2="45.75" y2="170.68"/><line class="cls-1" x1="45.75" y1="137.18" x2="57.75" y2="113.18"/><line class="cls-1" x1="80.25" y1="149.18" x2="58.25" y2="149.18"/><line class="cls-1" x1="79.75" y1="127.18" x2="57.75" y2="148.18"/><line class="cls-1" x1="57.75" y1="127.18" x2="79.75" y2="148.18"/><line class="cls-1" x1="80.25" y1="127.18" x2="58.25" y2="127.18"/><line class="cls-1" x1="79.75" y1="106.18" x2="57.75" y2="127.18"/><line class="cls-1" x1="57.75" y1="106.18" x2="79.75" y2="127.18"/><line class="cls-1" x1="80.25" y1="106.18" x2="58.25" y2="106.18"/><line class="cls-1" x1="79.75" y1="84.18" x2="57.75" y2="105.18"/><line class="cls-1" x1="57.75" y1="84.18" x2="79.75" y2="105.18"/><line class="cls-1" x1="80.25" y1="84.18" x2="58.25" y2="84.18"/><line class="cls-1" x1="79.75" y1="42.18" x2="57.75" y2="63.18"/><line class="cls-1" x1="57.75" y1="42.18" x2="79.75" y2="63.18"/><line class="cls-1" x1="80.25" y1="42.18" x2="58.25" y2="42.18"/><line class="cls-1" x1="79.76" y1="28.68" x2="58.25" y2="41.18"/><line class="cls-1" x1="58.25" y1="28.68" x2="79.76" y2="41.18"/><line class="cls-1" x1="80.25" y1="28.68" x2="58.74" y2="28.68"/><line class="cls-1" x1="79.75" y1="63.18" x2="57.75" y2="84.18"/><line class="cls-1" x1="57.75" y1="63.18" x2="79.75" y2="84.18"/><line class="cls-1" x1="80.25" y1="63.18" x2="58.25" y2="63.18"/><line class="cls-1" x1="92.75" y1="137.18" x2="79.75" y2="113.18"/><line class="cls-3" x1="157.75" y1="55.68" x2="157.75" y2="126.18"/><line class="cls-3" x1="159.75" y1="55.68" x2="159.75" y2="126.18"/><path class="cls-3" d="M160.08,130.18h-2.66a.67.67,0,0,1-.67-.67v-2.66a.67.67,0,0,1,.67-.67h2.66a.67.67,0,0,1,.67.67v2.66a.63.63,0,0,1-.2.47A.66.66,0,0,1,160.08,130.18Z"/><path class="cls-3" d="M159.25,130.18c0,4.18,0,6.28-1.75,5.23s-1.75-1.27-1.75-1.27"/><line class="cls-3" x1="195.75" y1="42.18" x2="184.75" y2="55.18"/><line class="cls-3" x1="195.75" y1="54.18" x2="184.75" y2="42.18"/><line class="cls-3" x1="184.75" y1="42.18" x2="184.75" y2="55.18"/><line class="cls-3" x1="184.75" y1="42.68" x2="173.75" y2="55.68"/><line class="cls-3" x1="184.75" y1="54.68" x2="173.75" y2="42.68"/><line class="cls-3" x1="173.75" y1="42.68" x2="173.75" y2="55.68"/><line class="cls-3" x1="173.75" y1="42.68" x2="162.75" y2="55.68"/><line class="cls-3" x1="173.75" y1="54.68" x2="162.75" y2="42.68"/><line class="cls-3" x1="162.75" y1="42.68" x2="162.75" y2="55.68"/><line class="cls-3" x1="162.75" y1="42.68" x2="151.75" y2="55.68"/><line class="cls-3" x1="162.75" y1="54.68" x2="151.75" y2="42.68"/><line class="cls-3" x1="151.75" y1="42.68" x2="151.75" y2="55.68"/><line class="cls-3" x1="151.75" y1="42.68" x2="140.75" y2="55.68"/><line class="cls-3" x1="151.75" y1="54.68" x2="140.75" y2="42.68"/><line class="cls-3" x1="140.75" y1="42.68" x2="140.75" y2="55.68"/><line class="cls-3" x1="140.75" y1="42.68" x2="129.75" y2="55.68"/><line class="cls-3" x1="140.75" y1="54.68" x2="129.75" y2="42.68"/><line class="cls-3" x1="129.75" y1="42.68" x2="129.75" y2="55.68"/><line class="cls-3" x1="129.75" y1="42.68" x2="118.75" y2="55.68"/><line class="cls-3" x1="129.75" y1="54.68" x2="118.75" y2="42.68"/><line class="cls-3" x1="118.75" y1="42.68" x2="118.75" y2="55.68"/><line class="cls-3" x1="118.75" y1="42.68" x2="107.75" y2="55.68"/><line class="cls-3" x1="118.75" y1="54.68" x2="107.75" y2="42.68"/><line class="cls-3" x1="107.75" y1="42.68" x2="107.75" y2="55.68"/><line class="cls-3" x1="107.75" y1="42.68" x2="96.75" y2="55.68"/><line class="cls-3" x1="107.75" y1="54.68" x2="96.75" y2="42.68"/><line class="cls-3" x1="96.75" y1="42.68" x2="96.75" y2="55.68"/><line class="cls-3" x1="96.75" y1="42.68" x2="85.75" y2="55.68"/><line class="cls-3" x1="96.75" y1="54.68" x2="85.75" y2="42.68"/><line class="cls-3" x1="85.75" y1="42.68" x2="85.75" y2="55.68"/><line class="cls-3" x1="85.75" y1="42.68" x2="74.75" y2="55.68"/><line class="cls-3" x1="85.75" y1="54.68" x2="74.75" y2="42.68"/><line class="cls-3" x1="74.75" y1="42.68" x2="74.75" y2="55.68"/><line class="cls-3" x1="74.75" y1="42.68" x2="63.75" y2="55.68"/><line class="cls-3" x1="74.75" y1="54.68" x2="63.75" y2="42.68"/><line class="cls-3" x1="63.75" y1="42.68" x2="63.75" y2="55.68"/><line class="cls-3" x1="63.75" y1="42.68" x2="52.75" y2="55.68"/><line class="cls-3" x1="63.75" y1="54.68" x2="52.75" y2="42.68"/><line class="cls-3" x1="52.75" y1="42.68" x2="52.75" y2="55.68"/><line class="cls-3" x1="52.75" y1="42.68" x2="41.75" y2="55.68"/><line class="cls-3" x1="52.75" y1="54.68" x2="41.75" y2="42.68"/><line class="cls-3" x1="41.75" y1="42.68" x2="41.75" y2="55.68"/><line class="cls-3" x1="41.75" y1="42.68" x2="30.75" y2="55.68"/><line class="cls-3" x1="41.75" y1="54.68" x2="30.75" y2="42.68"/><line class="cls-3" x1="30.75" y1="42.68" x2="30.75" y2="55.68"/><line class="cls-3" x1="30.75" y1="42.68" x2="19.75" y2="55.68"/><line class="cls-3" x1="30.75" y1="54.68" x2="19.75" y2="42.68"/><line class="cls-3" x1="19.75" y1="42.68" x2="19.75" y2="55.68"/><line class="cls-3" x1="19.75" y1="42.68" x2="8.75" y2="55.68"/><line class="cls-3" x1="19.75" y1="54.68" x2="8.75" y2="42.68"/><line class="cls-3" x1="8.75" y1="42.68" x2="8.75" y2="55.68"/></g></g></svg>