<svg xmlns="http://www.w3.org/2000/svg" viewBox="0 0 142.69 132.71"><g id="Layer_2" data-name="Layer 2"><g id="Layer_1-2" data-name="Layer 1"><path d="M97.81,59.66a5.73,5.73,0,0,0,2-4.37V52.71A5.71,5.71,0,0,0,97.36,48h2.48V10h-14V0h-29V10h-15V48h2.48a5.71,5.71,0,0,0-2.48,4.71v2.58a5.71,5.71,0,0,0,3.47,5.25L0,131.46l.84.54.71.71L38.44,95.82,71.1,131.67l.74-.67.71.71,34-34,34.54,35,.71-.7.85-.53ZM85.84,12h12V46h-12Zm-27-10h25V46h-25Zm-15,44V12h13V46ZM6.63,124.79l24-37.55,6.46,7.1ZM31.73,85.5,47.39,61h23L38.5,92.92Zm39.11,42.92-31-34,31-31ZM47.55,59a3.72,3.72,0,0,1-3.71-3.71V52.71A3.72,3.72,0,0,1,47.55,49H94.13a3.72,3.72,0,0,1,3.71,3.71v2.58A3.72,3.72,0,0,1,94.13,59Zm25.29,69.58V63.43l32.34,32.81ZM73.24,61H94.13a5.43,5.43,0,0,0,1.94-.35l17.19,27.51-6.67,6.67ZM108,96.26l6.35-6.35,21.84,34.94Z"/><path d="M70.84,25a11,11,0,1,1,11-11A11,11,0,0,1,70.84,25Zm0-20a9,9,0,1,0,9,9A9,9,0,0,0,70.84,5Z"/><path d="M70.84,42a8,8,0,1,1,8-8A8,8,0,0,1,70.84,42Zm0-14a6,6,0,1,0,6,6A6,6,0,0,0,70.84,28Z"/></g></g></svg>