<svg xmlns="http://www.w3.org/2000/svg" viewBox="0 0 178 145"><defs><style>.cls-1,.cls-2{fill:#fff;}.cls-2{stroke:#000;stroke-miterlimit:10;stroke-width:9px;}</style></defs><g id="Layer_2" data-name="Layer 2"><g id="Layer_1-2" data-name="Layer 1"><circle class="cls-1" cx="121" cy="126" r="12.5"/><path d="M121,118a8,8,0,1,1-8,8,8,8,0,0,1,8-8m0-9a17,17,0,1,0,17,17,17,17,0,0,0-17-17Z"/><circle class="cls-1" cx="27" cy="128" r="12.5"/><path d="M27,120a8,8,0,1,1-8,8,8,8,0,0,1,8-8m0-9a17,17,0,1,0,17,17,17,17,0,0,0-17-17Z"/><path d="M144.45,123.5a23.12,23.12,0,0,0-9.37-17H150.5v17Zm-94.22,0a23.27,23.27,0,0,0-12.29-17h69a23.12,23.12,0,0,0-9.37,17ZM4.5,73.5h28v31a23.64,23.64,0,0,0-28,15.85Z"/><path d="M28,78V99.35l-1,0a28.07,28.07,0,0,0-18,6.5V78H28m118,33v1.59c-.28-.54-.57-1.07-.88-1.59H146m-49.12,0a27.55,27.55,0,0,0-3.21,8H53.8a27.46,27.46,0,0,0-4-8H96.88M37,69H0v59H8.05c0-.33-.05-.65-.05-1a18.85,18.85,0,0,1,19-18.69A18.85,18.85,0,0,1,46,127c0,.33,0,.65,0,1h56.31a17.88,17.88,0,0,1-.26-3,19,19,0,0,1,38,0,17.88,17.88,0,0,1-.26,3H155V102H37V69Z"/><path class="cls-2" d="M23.07,20.5H34.5a0,0,0,0,1,0,0v47a0,0,0,0,1,0,0H4.5a0,0,0,0,1,0,0V39.07A18.57,18.57,0,0,1,23.07,20.5Z"/><rect x="36" y="16" width="19" height="88"/><rect x="60" width="118" height="99" rx="4.36"/></g></g></svg>